<?xml version="1.0" encoding="utf-8"?>
<!-- Generator: Adobe Illustrator 17.0.0, SVG Export Plug-In . SVG Version: 6.00 Build 0)  -->
<!DOCTYPE svg PUBLIC "-//W3C//DTD SVG 1.1//EN" "http://www.w3.org/Graphics/SVG/1.1/DTD/svg11.dtd">
<svg version="1.1" id="Layer_1" xmlns="http://www.w3.org/2000/svg" xmlns:xlink="http://www.w3.org/1999/xlink" x="0px" y="0px"
	 width="31.8px" height="31.7px" viewBox="0 0 31.8 31.7" enable-background="new 0 0 31.8 31.7" xml:space="preserve">
<g fill="#3df6b0">
	<defs>
		<rect id="SVGID_1_" y="0" width="31.8" height="31.7"/>
	</defs>
	<clipPath id="SVGID_2_">
		<use xlink:href="#SVGID_1_"  overflow="visible"/>
	</clipPath>
	<path clip-path="url(#SVGID_2_)" d="M31.101,18.5L24.5,16c0.3-1.1,0.5-2.3,0.5-3.5C25,5.6,19.3,0,12.5,0S0,5.6,0,12.5
		S5.6,25,12.5,25c1.2,0,2.401-0.2,3.5-0.5l2.5,6.6c0.101,0.4,0.5,0.599,0.8,0.599h0.101c0.299,0,0.7-0.199,0.899-0.5l2.601-4.299
		l2.599,2.6c0.401,0.4,1,0.4,1.401,0l2.7-2.7c0.399-0.4,0.399-1,0-1.4L27,22.8l4.3-2.6c0.301-0.2,0.5-0.6,0.5-0.9
		C31.7,18.9,31.401,18.6,31.101,18.5 M12.5,23C6.7,23,2,18.3,2,12.5S6.7,2,12.5,2S23,6.7,23,12.5c0,1-0.099,1.9-0.399,2.8l-1.7-0.6
		c0.2-0.7,0.299-1.4,0.299-2.1c0-4.8-3.9-8.7-8.7-8.7s-8.7,3.9-8.7,8.7s3.9,8.7,8.7,8.7c0.7,0,1.401-0.101,2.1-0.3l0.7,1.699
		C14.3,22.9,13.401,23,12.5,23 M12.5,7.7c-2.7,0-4.8,2.2-4.8,4.8c0,2.7,2.201,4.8,4.8,4.8c0.3,0,0.5,0,0.7-0.1l0.701,1.8
		c-0.5,0.1-0.901,0.2-1.401,0.2c-3.7,0-6.7-3-6.7-6.7s3-6.7,6.7-6.7s6.7,3,6.7,6.7c0,0.5,0,0.9-0.099,1.4L17.2,13.2
		c0-0.2,0.1-0.5,0.1-0.7C17.3,9.8,15.1,7.7,12.5,7.7 M11.5,12.9l0.901,2.5C10.8,15.4,9.6,14.1,9.6,12.6c0-1.6,1.301-2.8,2.801-2.8
		s2.799,1.3,2.799,2.8l-2.5-0.9c-0.4-0.1-0.799,0-1.1,0.2C11.5,12.1,11.401,12.5,11.5,12.9 M24.8,21.8c-0.3,0.2-0.399,0.399-0.5,0.7
		c0,0.3,0.101,0.6,0.301,0.8l2.8,2.8l-1.3,1.3L23.3,24.6c-0.199-0.2-0.5-0.3-0.8-0.3c-0.3,0-0.599,0.2-0.7,0.5l-2.199,3.6
		L17.8,23.699L17.101,21.8l-0.7-1.7L15.7,18.2L15,16.5l-0.7-1.9l-0.1-0.4l0.4,0.2l1.9,0.7l1.8,0.7l1.9,0.7l1.701,0.7l1.899,0.7
		l4.7,1.8L24.8,21.8z"/>
</g>
</svg>
