<?xml version="1.0" encoding="utf-8"?>
<!-- Generator: Adobe Illustrator 17.0.0, SVG Export Plug-In . SVG Version: 6.00 Build 0)  -->
<!DOCTYPE svg PUBLIC "-//W3C//DTD SVG 1.1//EN" "http://www.w3.org/Graphics/SVG/1.1/DTD/svg11.dtd">
<svg version="1.1" id="Layer_1" xmlns="http://www.w3.org/2000/svg" xmlns:xlink="http://www.w3.org/1999/xlink" x="0px" y="0px"
	 width="55.157px" height="90.675px" viewBox="0 0 55.157 90.675" enable-background="new 0 0 55.157 90.675" xml:space="preserve">
<g fill="#b372ff">
	<defs>
		<rect id="SVGID_1_" width="55.157" height="90.675"/>
	</defs>
	<clipPath id="SVGID_2_">
		<use xlink:href="#SVGID_1_"  overflow="visible"/>
	</clipPath>
	<path clip-path="url(#SVGID_2_)" d="M43.228,45.775c0.701-3.4,1.101-7,1.101-10.7c0-14.5-6-27.8-15.601-34.7
		c-0.699-0.5-1.599-0.5-2.299,0c-9.6,6.9-15.6,20.2-15.6,34.7c0,3.7,0.4,7.3,1.1,10.7l-11.6,18c-0.5,0.7-0.4,1.6,0.1,2.3
		c0.4,0.5,1,0.8,1.6,0.8c0.2,0,0.4,0,0.6-0.1l15.9-5.3c0.6,0.9,1.2,1.7,1.9,2.5l0.1,0.1c0.1,0.1,0.1,0.1,0.2,0.2l0.1,0.1
		c0.1,0.1,0.1,0.1,0.2,0.1c0,0,0.1,0,0.1,0.1c0.1,0,0.2,0.1,0.3,0.1h0.1h0.4h11.299h0.401h0.099c0.101,0,0.201-0.1,0.301-0.1
		c0,0,0.1,0,0.1-0.1c0.099,0,0.2-0.1,0.2-0.1l0.1-0.1c0.1-0.1,0.1-0.1,0.2-0.2l0.099-0.1c0.701-0.8,1.301-1.7,1.901-2.5l15.9,5.3
		c0.199,0.1,0.4,0.1,0.6,0.1c0.599,0,1.2-0.3,1.599-0.8c0.5-0.7,0.601-1.6,0.101-2.3L43.228,45.775z M13.429,50.975
		c0.8,2.5,1.8,4.8,3,7l-9.6,3.2L13.429,50.975z M22.929,60.775c-0.6-0.8-1.3-1.8-1.9-2.7c-2.3-3.7-4-7.8-5-12.4
		c-0.8-3.4-1.2-7-1.2-10.6c0-12.6,4.9-24.1,12.7-30.6c7.9,6.4,12.8,18,12.8,30.6c0,3.7-0.4,7.2-1.2,10.6c-1,4.6-2.7,8.7-5,12.4
		c-0.6,1-1.2,1.9-1.901,2.7H22.929z M38.829,57.975c1.2-2.2,2.2-4.6,3-7l6.6,10.2L38.829,57.975z"/>
	<path clip-path="url(#SVGID_2_)" d="M27.629,17.275c-3.7,0-6.8,3-6.8,6.8c0,3.8,3,6.8,6.8,6.8s6.8-3,6.8-6.8
		C34.429,20.275,31.329,17.275,27.629,17.275 M27.629,26.775c-1.5,0-2.8-1.2-2.8-2.8c0-1.5,1.2-2.8,2.8-2.8c1.6,0,2.8,1.2,2.8,2.8
		S29.129,26.775,27.629,26.775"/>
	<path clip-path="url(#SVGID_2_)" d="M35.228,66.975l-7.6,7.4l-7.6-7.4c-0.8-0.8-2.1-0.8-2.8,0c-0.8,0.8-0.8,2.1,0,2.8l9,8.7
		c0.4,0.4,0.9,0.6,1.4,0.6s1-0.2,1.401-0.6l9-8.7c0.8-0.8,0.8-2,0-2.8C37.329,66.275,36.029,66.175,35.228,66.975"/>
	<path clip-path="url(#SVGID_2_)" d="M35.228,78.575l-7.6,7.4l-7.6-7.4c-0.8-0.8-2.1-0.8-2.8,0c-0.8,0.801-0.8,2.101,0,2.801
		l9,8.699c0.4,0.4,0.9,0.601,1.4,0.601s1-0.201,1.401-0.601l9-8.699c0.8-0.801,0.8-2,0-2.801
		C37.329,77.876,36.029,77.876,35.228,78.575"/>
</g>
</svg>
