<?xml version="1.0" encoding="utf-8"?>
<!-- Generator: Adobe Illustrator 17.0.0, SVG Export Plug-In . SVG Version: 6.00 Build 0)  -->
<!DOCTYPE svg PUBLIC "-//W3C//DTD SVG 1.1//EN" "http://www.w3.org/Graphics/SVG/1.1/DTD/svg11.dtd">
<svg version="1.1" id="Layer_1" xmlns="http://www.w3.org/2000/svg" xmlns:xlink="http://www.w3.org/1999/xlink" x="0px" y="0px"
	 width="26px" height="32px" viewBox="0 0 26 32" enable-background="new 0 0 26 32" xml:space="preserve">
<g>
	<defs>
		<rect fill="#ff8e6a" id="SVGID_1_" width="26" height="32"/>
	</defs>
	<clipPath id="SVGID_2_">
		<use xlink:href="#SVGID_1_"  overflow="visible"/>
	</clipPath>
	<path fill="#ff8e6a" clip-path="url(#SVGID_2_)" d="M22,0H4C1.8,0,0,1.8,0,4v24c0,2.199,1.8,4,4,4h18c2.2,0,4-1.801,4-4V4C26,1.8,24.2,0,22,0
		 M24,28c0,1.1-0.9,2-2,2H4c-1.1,0-2-0.9-2-2V4c0-1.101,0.9-2,2-2h18c1.1,0,2,0.899,2,2V28z"/>
	<path fill="#ff8e6a" clip-path="url(#SVGID_2_)" d="M10.9,10.1c0.6,0.6,1.4,0.9,2.1,0.9s1.5-0.3,2.1-0.9C15.7,9.5,16,8.8,16,8s-0.3-1.6-0.9-2.1
		c-1.2-1.2-3.1-1.2-4.2,0C10.3,6.4,10,7.2,10,8S10.3,9.6,10.9,10.1 M12.3,7.3C12.5,7.1,12.8,7,13,7s0.5,0.1,0.7,0.3
		C13.9,7.5,14,7.7,14,8s-0.1,0.5-0.3,0.7c-0.4,0.4-1,0.4-1.4,0C12.1,8.5,12,8.3,12,8S12.1,7.5,12.3,7.3"/>
	<path fill="#ff8e6a" clip-path="url(#SVGID_2_)" d="M19,19H7c-0.6,0-1,0.4-1,1c0,0.6,0.4,1,1,1h12c0.6,0,1-0.4,1-1C20,19.4,19.6,19,19,19"/>
	<path fill="#ff8e6a" clip-path="url(#SVGID_2_)" d="M7,24h7c0.6,0,1-0.4,1-1c0-0.601-0.4-1-1-1H7c-0.6,0-1,0.399-1,1C6,23.6,6.4,24,7,24"/>
	<path fill="#ff8e6a" clip-path="url(#SVGID_2_)" d="M17,25H7c-0.6,0-1,0.399-1,1c0,0.6,0.4,1,1,1h10c0.6,0,1-0.4,1-1C18,25.399,17.6,25,17,25"/>
	<path fill="#ff8e6a" clip-path="url(#SVGID_2_)" d="M8,18c0.6,0,1-0.4,1-1c0-1.7,1.3-3,3-3h2c1.7,0,3,1.3,3,3c0,0.6,0.4,1,1,1s1-0.4,1-1
		c0-2.8-2.2-5-5-5h-2c-2.8,0-5,2.2-5,5C7,17.6,7.4,18,8,18"/>
</g>
</svg>
